<?xml version="1.0" encoding="iso-8859-1"?>
<!-- Generator: Adobe Illustrator 18.0.0, SVG Export Plug-In . SVG Version: 6.00 Build 0)  -->
<!DOCTYPE svg PUBLIC "-//W3C//DTD SVG 1.1//EN" "http://www.w3.org/Graphics/SVG/1.1/DTD/svg11.dtd">
<svg version="1.1" id="Capa_1" xmlns="http://www.w3.org/2000/svg" xmlns:xlink="http://www.w3.org/1999/xlink" x="0px" y="0px"
	 viewBox="0 0 297 297" style="enable-background:new 0 0 297 297;" xml:space="preserve">
<path d="M283.382,66.275L152.92,1.044c-2.782-1.392-6.058-1.392-8.839,0L13.618,66.275c-3.349,1.675-5.464,5.096-5.464,8.84v212.001
	c0,5.458,4.425,9.884,9.884,9.884h260.925c5.458,0,9.884-4.425,9.884-9.884V75.115C288.846,71.371,286.731,67.95,283.382,66.275z
	 M236.463,277.233h-12.849v-65.478c0-5.458-4.425-9.884-9.884-9.884h-22.732v-55.348c0-5.458-4.425-9.884-9.884-9.884h-65.231
	c-5.458,0-9.884,4.425-9.884,9.884v55.348H83.269c-5.458,0-9.884,4.425-9.884,9.884v65.478H60.537V123.791h175.927V277.233z
	 M171.232,201.871h-45.464v-45.464h45.464V201.871z M138.616,221.638v55.595H93.152v-55.595H138.616z M158.384,221.638h45.464
	v55.595h-45.464V221.638z M269.079,277.233H256.23V113.908c0-5.458-4.425-9.884-9.884-9.884H50.653
	c-5.458,0-9.884,4.425-9.884,9.884v163.325H27.921V81.224L148.5,20.934l120.579,60.289V277.233z"/>
<g>
</g>
<g>
</g>
<g>
</g>
<g>
</g>
<g>
</g>
<g>
</g>
<g>
</g>
<g>
</g>
<g>
</g>
<g>
</g>
<g>
</g>
<g>
</g>
<g>
</g>
<g>
</g>
<g>
</g>
</svg>
